<?xml version="1.0" standalone="no"?>
<!DOCTYPE svg PUBLIC "-//W3C//DTD SVG 20010904//EN"
 "http://www.w3.org/TR/2001/REC-SVG-20010904/DTD/svg10.dtd">
<svg version="1.0" xmlns="http://www.w3.org/2000/svg"
 width="32.000000pt" height="32.000000pt" viewBox="0 0 32.000000 32.000000"
 preserveAspectRatio="xMidYMid meet">

<g transform="translate(0.000000,32.000000) scale(0.100000,-0.100000)"
fill="#000000" stroke="none">
<path d="M146 301 c-4 -5 -3 -17 1 -28 6 -16 5 -16 -10 -4 -10 8 -17 9 -17 3
0 -6 5 -14 11 -18 8 -4 7 -9 -2 -15 -11 -6 -10 -9 4 -15 23 -8 22 -30 -3 -37
-16 -4 -18 -2 -10 13 11 21 -14 50 -30 34 -10 -11 -1 -64 11 -64 5 0 9 -7 9
-15 0 -8 5 -15 11 -15 8 0 7 -5 -1 -15 -11 -13 -10 -14 4 -9 14 5 15 3 7 -19
-5 -14 -9 -39 -9 -56 1 -24 6 -31 21 -31 13 0 17 5 14 15 -4 8 -2 17 4 21 6 3
13 -3 16 -15 5 -21 43 -30 43 -11 0 6 -5 10 -11 10 -8 0 -7 5 1 15 10 12 10
19 2 27 -14 14 -16 72 -3 63 13 -8 33 32 28 53 -3 11 -5 9 -7 -8 -1 -23 -3
-22 -14 9 -7 19 -18 37 -26 39 -8 3 -10 0 -5 -8 5 -8 1 -11 -11 -8 -11 2 -19
12 -19 23 0 15 7 20 27 20 15 1 30 4 34 8 4 4 2 7 -5 7 -7 0 -9 5 -5 13 6 9 5
9 -8 0 -8 -7 -18 -10 -21 -6 -12 11 -8 21 11 26 11 3 7 5 -10 6 -15 0 -29 -3
-32 -8z m14 -151 c0 -5 -5 -10 -11 -10 -5 0 -7 5 -4 10 3 6 8 10 11 10 2 0 4
-4 4 -10z m40 6 c0 -3 -4 -8 -10 -11 -5 -3 -10 -1 -10 4 0 6 5 11 10 11 6 0
10 -2 10 -4z"/>
<path d="M233 75 c0 -33 2 -45 4 -27 2 18 2 45 0 60 -2 15 -4 0 -4 -33z"/>
</g>
</svg>
